<svg xmlns="http://www.w3.org/2000/svg" viewBox="0 0 4819 1878" width="2000" height="779">
	<style>
		tspan { white-space:pre }
		.shp0 { fill: #ffffff } 
		.shp1 { opacity: 0.996;fill: #ffffff } 
	</style>
	<g id="Layer">
		<path id="Layer" class="shp0 blue-glow" d="M80.87 1389.44C84.73 1301.22 117.64 1284.02 174.04 1234.96C230.43 1185.89 370.18 1073.14 397.19 1058.42C424.15 1043.7 458.49 1048.61 473.15 1036.32C487.87 1024.08 562.68 917.4 648.46 917.4C734.29 917.4 764.94 948.05 767.42 967.68C769.9 987.3 737.98 982.4 737.98 989.78C737.98 997.12 796.8 1030.2 811.52 1044.92C826.24 1059.64 800.5 1080.97 794.38 1095.2C790.68 1103.8 797.96 1149.83 775.96 1151.6C729.38 1155.29 706.12 1124.64 696.31 1134.4C686.93 1143.77 698.73 1181.04 698.73 1200.61C698.73 1220.24 701.21 1320.8 718.36 1342.85C735.56 1364.9 752.7 1399.25 816.43 1438.5C880.21 1477.76 904.74 1487.57 936.6 1521.86C968.47 1556.21 1019.96 1634.66 995.42 1666.53C970.89 1698.45 963.56 1671.44 936.6 1659.2C909.65 1646.96 887.54 1656.77 875.3 1624.85C863.07 1592.98 818.91 1516.96 782.14 1526.77C782.14 1526.77 799.28 1624.85 818.91 1654.29C838.53 1683.73 865.49 1767.09 865.49 1784.24C865.49 1801.44 887.54 1801.44 887.54 1825.92C887.54 1850.45 855.68 1850.45 811.58 1850.45C767.42 1850.45 764.94 1835.73 767.42 1823.49C769.9 1811.25 804.19 1803.86 796.86 1786.72C789.47 1769.52 764.99 1803.86 755.18 1786.72C745.37 1769.52 745.31 1759.76 757.61 1737.65C769.85 1715.6 769.85 1705.78 769.85 1693.54C769.85 1681.25 688.92 1592.98 661.96 1570.88C635.01 1548.82 549.17 1507.14 549.17 1487.52L549.17 1387.01C549.17 1379.62 512.4 1342.85 492.78 1342.85C473.15 1342.85 379.99 1384.53 379.99 1406.58C379.99 1428.69 475.63 1526.77 473.15 1583.17C470.73 1639.57 446.2 1727.84 448.68 1789.14C448.68 1789.14 546.75 1838.15 568.8 1838.15C590.85 1838.15 605.57 1816.1 605.57 1843.06C605.57 1870.02 576.19 1867.6 556.56 1870.02C536.93 1872.5 348.13 1882.32 338.31 1867.6C328.5 1852.88 333.41 1764.61 335.89 1717.97C338.31 1671.38 360.36 1624.79 360.36 1605.17C360.36 1585.54 330.98 1573.3 289.31 1548.77C289.31 1548.77 286.82 1600.26 269.68 1622.37C252.48 1644.42 120.95 1717.64 120.12 1735.17C116.43 1812.41 230.43 1832.04 230.43 1858.99L95.59 1858.99C95.59 1858.99 -0.06 1752.31 -0.06 1735.17C-0.06 1717.97 107.83 1585.6 134.79 1580.69C161.8 1575.78 161.8 1573.3 161.8 1556.15C161.8 1539.01 78.39 1445.84 80.87 1389.44L80.87 1389.44Z" />
		<path id="Layer" class="shp0" d="M2145.37 411.06C2145.37 411.06 2130.65 312.98 2187.05 271.3C2243.44 229.62 2253.25 234.53 2309.65 232.05C2366.04 229.57 2402.81 244.29 2412.62 261.49C2422.44 278.64 2424.86 298.26 2424.86 298.26C2424.86 298.26 2454.3 310.5 2454.3 327.7C2454.3 344.85 2432.25 335.04 2432.25 352.18C2432.25 369.38 2464.11 406.16 2459.21 415.97C2454.3 425.73 2429.77 403.68 2429.77 418.4C2429.77 433.12 2432.25 465.04 2415.05 479.7C2397.91 494.42 2336.6 489.52 2316.98 496.9C2297.41 504.24 2277.78 528.77 2272.88 550.82C2267.97 572.88 2307.17 607.22 2304.74 644C2302.26 680.77 2248.35 722.45 2248.35 773.94C2248.35 825.44 2309.65 857.36 2341.51 879.41C2373.37 901.46 2434.67 908.85 2461.69 908.85C2488.64 908.85 2549.67 909.57 2557.28 945.62C2560.97 963.1 2547.85 974.35 2535.67 989.51C2519.07 1010.24 2504.02 999.27 2494.76 992.21C2480.37 981.18 2480.71 968.23 2467.2 965.86C2446.03 962.16 2397.91 976.28 2380.76 976.28C2363.56 976.28 2233.63 943.14 2226.3 943.14C2218.91 943.14 2223.81 989.73 2223.81 1006.93C2223.81 1024.08 2307.17 1102.53 2326.79 1141.78C2346.42 1181.04 2422.44 1315.89 2422.44 1352.66C2422.44 1389.44 2370.95 1553.73 2370.95 1583.17C2370.95 1612.61 2361.14 1671.44 2361.14 1698.4C2361.14 1725.35 2420.01 1776.85 2446.97 1789.14C2473.93 1801.38 2562.18 1835.73 2559.76 1865.17L2402.81 1867.6C2402.81 1867.6 2341.51 1852.93 2314.55 1855.36C2287.6 1857.84 2233.63 1874.98 2223.81 1850.45C2214 1825.97 2221.39 1791.62 2243.44 1762.18C2265.49 1732.74 2263.07 1683.73 2263.07 1654.29C2263.07 1624.9 2233.63 1588.08 2226.3 1543.97C2218.91 1499.81 2226.3 1445.89 2248.35 1426.26C2270.4 1406.64 2282.69 1387.01 2270.4 1364.96C2258.16 1342.85 2204.19 1308.56 2204.19 1308.56C2204.19 1308.56 2199.34 1394.34 2191.95 1409.06C2184.62 1423.78 2103.69 1480.18 2066.92 1516.96C2030.15 1553.73 1949.23 1624.85 1939.42 1666.53C1929.6 1708.26 1919.79 1757.28 1951.65 1779.33C1983.52 1801.44 2030.15 1813.68 2027.67 1830.88C2025.19 1848.02 2032.58 1850.45 2000.72 1850.45C1968.85 1850.45 1922.27 1857.84 1905.07 1833.3C1887.93 1808.77 1870.73 1774.42 1836.44 1764.61C1802.09 1754.8 1787.38 1767.09 1782.47 1737.65C1777.56 1708.21 1792.28 1693.54 1811.91 1669.01C1831.53 1644.48 1909.98 1595.41 1909.98 1566.02C1909.98 1536.58 1905.07 1494.9 1958.99 1453.22C2012.95 1411.54 2057.06 1384.53 2054.63 1350.18C2052.21 1315.89 2012.95 1291.36 2010.47 1261.92C2008.05 1232.53 2010.53 1173.65 1978.61 1136.88C1946.75 1100.1 1949.23 1063.33 1949.23 1016.69C1949.23 970.1 1958.99 955.38 1929.6 921.09C1900.17 886.74 1870.73 798.48 1870.73 742.08C1870.73 685.68 1934.51 612.08 1971.28 587.6C2008.05 563.06 2012.95 516.48 2039.91 499.33C2066.92 482.13 2145.37 411.06 2145.37 411.06L2145.37 411.06Z" />
		<path id="Layer" class="shp0" d="M3184.4 946.51C3191.9 937.52 3189.69 939.34 3191.29 924.89C3191.73 920.76 3190.19 914.86 3188.97 912.05C3181.97 895.29 3148.46 868.44 3143.72 858.07C3136.88 843.08 3122.33 819.26 3100.72 797.43C3079.11 775.6 2993.11 656.24 2976.57 634.79C2967.42 622.83 2985.17 444.14 2985.17 431.85C2985.17 419.61 2955.73 333.77 2955.73 319.05C2955.73 304.33 2957 251.62 2957 251.62C2957 251.62 3001.1 256.53 3010.92 249.14C3020.73 241.81 3020.73 229.57 3020.73 229.57L3028.11 214.85C3028.11 214.85 3025.63 192.8 3025.63 180.5C3025.63 168.26 3045.26 192.74 3045.26 178.08C3045.26 163.36 3008.49 121.68 3008.49 106.96C3008.49 92.24 3020.73 102.05 3020.73 89.75C3020.73 77.52 3003.58 72.61 2986.38 43.17C2969.24 13.78 2910.42 -5.84 2873.59 1.49C2836.82 8.88 2775.52 43.22 2775.52 111.86C2775.52 180.5 2836.82 234.48 2836.82 234.48C2836.82 234.48 2822.11 259.01 2800.06 266.34C2778 273.73 2773.1 295.78 2753.47 322.74C2733.85 349.7 2697.08 411.01 2699.56 438.02C2701.98 464.98 2657.83 599.84 2657.83 629.28C2657.83 658.72 2670.12 693.01 2679.93 729.78C2689.75 766.61 2731.42 840.16 2731.42 840.16C2731.42 840.16 2733.85 928.42 2733.85 970.1C2733.85 1011.78 2778 1026.5 2778 1026.5C2778 1026.5 2775.52 1281.49 2760.8 1323.17C2746.14 1364.9 2694.65 1435.97 2694.65 1435.97C2694.65 1435.97 2692.17 1600.26 2692.17 1656.66C2692.17 1713.06 2672.55 1735.11 2667.64 1767.03C2662.79 1798.9 2679.93 1828.34 2679.93 1828.34L2937.38 1835.67L2937.38 1806.29C2937.38 1776.85 2856.45 1784.18 2831.92 1771.94C2807.39 1759.7 2797.63 1735.17 2797.63 1710.63C2797.63 1686.1 2790.24 1602.74 2802.48 1558.58C2814.77 1514.48 2880.98 1333.04 2880.98 1333.04L2912.84 1247.2C2912.84 1247.2 2942.28 1276.64 2961.91 1318.32C2981.53 1360 2976.63 1364.9 2957 1404.1C2937.38 1443.35 2944.71 1480.13 2964.33 1536.53C2983.96 1592.93 3003.58 1691.01 3003.58 1725.35L3003.58 1860.21C3003.58 1860.21 3248.79 1865.11 3275.74 1865.11C3302.7 1865.11 3307.61 1892.07 3307.61 1852.88C3307.61 1813.62 3268.36 1821.01 3204.63 1811.2C3140.9 1801.38 3096.75 1688.58 3096.75 1688.58C3096.75 1688.58 3094.32 1384.53 3091.84 1288.88C3089.36 1193.28 3074.7 1168.74 3067.31 1085.38C3059.98 1001.97 2993.77 894.08 2993.77 894.08L2983.96 805.81L2983.35 781C2983.35 781 3015.05 802.89 3053.53 852.4C3062.35 863.75 3084.45 891.54 3096.14 896.56C3100.22 898.32 3104.13 897.93 3105.95 902.68C3124.92 952.35 3128.83 959.74 3149.45 958.91C3161.41 958.47 3173.65 959.41 3184.4 946.51L3184.4 946.51Z" />
		<path id="Layer" class="shp0" d="M1814.39 469.89C1814.39 460.13 1853.64 457.65 1853.64 435.6C1853.64 413.54 1826.63 420.88 1826.63 413.54C1826.63 406.16 1843.83 386.53 1826.63 369.38C1809.48 352.24 1743.27 320.32 1718.8 320.32C1694.27 320.32 1645.2 320.32 1625.58 330.13C1605.95 339.94 1537.32 403.73 1512.79 428.21C1488.31 452.74 1407.39 479.76 1370.62 516.53C1333.79 553.3 1262.73 607.22 1235.72 668.53C1208.77 729.84 1191.62 796.05 1154.85 857.36C1118.08 918.66 1071.22 950.59 1073.93 1026.56C1076.35 1095.2 1115.6 1129.54 1130.32 1149.17C1145.04 1168.74 1157.28 1274.21 1164.66 1301.17C1172 1328.13 1221.06 1379.62 1221.06 1379.62C1221.06 1379.62 1218.58 1394.34 1189.14 1413.97C1159.76 1433.6 1142.56 1472.8 1142.56 1472.8C1142.56 1472.8 1130.32 1573.36 1130.32 1622.42C1130.32 1671.44 1103.36 1742.56 1091.07 1764.66C1078.83 1786.72 1046.97 1811.25 1073.93 1835.73C1100.88 1860.26 1154.85 1818.58 1191.62 1821.06C1228.39 1823.49 1395.09 1840.64 1395.09 1840.64C1397.57 1784.24 1324.04 1784.24 1294.6 1784.24C1265.16 1784.24 1225.91 1715.6 1225.91 1681.25C1225.91 1646.96 1252.92 1607.7 1252.92 1607.7C1252.92 1607.7 1343.61 1436.08 1365.71 1387.01C1387.76 1338 1407.39 1369.86 1407.39 1369.86L1404.96 1436.02L1402.48 1445.84C1370.62 1485.09 1365.71 1543.97 1392.67 1602.8C1419.63 1661.68 1412.29 1740.13 1412.29 1757.28C1412.29 1774.48 1407.39 1830.82 1417.2 1850.45C1427.01 1870.08 1463.78 1865.17 1463.78 1865.17L1757.99 1877.41L1753.09 1850.45C1748.18 1823.49 1718.74 1835.73 1696.69 1835.73C1674.64 1835.73 1615.77 1803.86 1581.48 1781.81C1547.13 1759.7 1522.6 1676.34 1525.08 1632.18C1527.51 1588.08 1554.47 1416.4 1554.47 1347.76C1554.47 1279.12 1529.93 1284.02 1512.79 1254.58C1505.57 1242.23 1501.54 1230.88 1499.12 1221.67C1497.3 1219.74 1495.53 1217.59 1493.83 1215C1473.37 1183.68 1464.39 1141.34 1459.43 1104.68C1455.79 1077.72 1451.93 1046.35 1461.63 1019.89C1461.91 1015.97 1462.07 1012.06 1462.57 1008.14C1463.07 1004.5 1464.17 1001.03 1465.82 998.05C1464.28 995.41 1463.18 992.43 1462.79 988.96C1475.47 1000.59 1485.39 1009.25 1489.97 1012C1511.96 1025.34 1584.73 1044.7 1609.04 1065.87C1624.53 1079.37 1614 1095.75 1623.93 1121.16C1630.32 1137.43 1641.12 1163.17 1678.5 1149.56C1705.95 1139.52 1731.53 1135.28 1740.41 1109.97C1758.71 1057.76 1680.87 1009.36 1646.25 988.41C1615.38 969.72 1554.13 922.25 1524.37 874.56C1532.36 861.16 1539.47 847.32 1546.2 833.21C1544.93 818.49 1545.42 799.41 1547.13 771.52C1552.04 690.58 1571.66 729.84 1591.23 720.02C1610.86 710.21 1613.34 668.53 1613.34 634.18C1613.34 599.84 1681.97 580.21 1696.69 575.3C1711.41 570.45 1743.27 570.45 1753.09 585.12C1762.9 599.84 1807.06 594.93 1826.63 592.5C1846.25 590.02 1856.06 545.92 1856.06 526.29C1856.06 506.66 1814.39 479.7 1814.39 469.89L1814.39 469.89Z" />
		<path id="Path 0" fill="#ffffff" fill-rule="evenodd" class="shp1" d="M3460.5 474.02C3462.15 474.03 3465.3 474.87 3467.5 475.88C3469.7 476.88 3473.53 479.96 3476 482.72C3478.47 485.47 3481.96 489.59 3483.75 491.86C3485.54 494.14 3489.14 497.21 3491.75 498.7C3494.36 500.18 3499.65 501.99 3503.5 502.72C3507.35 503.45 3512.3 505.12 3514.5 506.44C3516.7 507.76 3520.6 511.02 3523.16 513.67C3525.73 516.33 3530.86 523 3534.57 528.5C3538.29 534 3544.17 544.35 3547.64 551.5C3551.12 558.65 3555.74 569.9 3557.92 576.5C3560.2 583.39 3562.59 593.4 3563.55 600C3564.46 606.33 3565.05 614.51 3564.86 618.18C3564.55 624 3564.11 625.26 3561.5 627.97C3559.85 629.68 3556.93 631.54 3555 632.1C3553.07 632.67 3540.03 633.56 3526 634.08C3511.97 634.6 3496.68 635.69 3492 636.5C3487.32 637.3 3480.57 638.89 3477 640.04C3473.43 641.18 3465.55 644.51 3459.5 647.44C3453.45 650.37 3444.9 655.44 3440.5 658.7C3436.1 661.95 3430.25 667.15 3427.5 670.24C3424.75 673.32 3421.04 678.25 3419.26 681.18C3417.48 684.1 3414.47 690.1 3412.56 694.5C3410.65 698.9 3408.38 705.2 3407.52 708.5C3406.65 711.8 3406.19 716.08 3406.5 718C3406.81 719.92 3407.95 722.96 3409.03 724.75C3410.11 726.54 3412.91 729.12 3415.25 730.49C3417.59 731.86 3423.78 733.9 3429 735.02C3436.19 736.56 3444.82 737.28 3464.5 737.95C3481.18 738.53 3493.01 739.4 3497.5 740.4C3501.35 741.26 3505.74 742.87 3507.25 743.98C3509.33 745.51 3510.71 748.26 3512.92 755.25C3514.52 760.34 3517.43 771.92 3519.38 781C3521.33 790.08 3526.31 815.95 3530.43 838.5C3534.55 861.05 3540.43 891.88 3543.49 907C3546.55 922.13 3551.52 944.4 3554.53 956.5C3557.54 968.6 3560.64 980.52 3561.4 983C3562.24 985.72 3563.01 986.91 3563.33 986C3563.63 985.17 3564.37 979.77 3564.98 974C3565.59 968.23 3566.31 961.48 3566.57 959C3566.83 956.52 3567.29 952.48 3567.59 950C3567.9 947.52 3568.36 943.92 3568.62 942C3568.89 940.08 3570.91 927.48 3573.12 914C3575.34 900.52 3577.74 887.02 3578.47 884C3579.21 880.98 3581.01 873.33 3582.49 867C3583.97 860.67 3586.55 851.23 3588.22 846C3589.89 840.77 3592.27 834.25 3593.51 831.5C3594.75 828.75 3597.23 823.13 3599.01 819C3600.79 814.88 3605.34 805.31 3609.12 797.75C3612.91 790.19 3618.07 780.74 3620.6 776.75C3623.13 772.76 3629.54 765.23 3634.87 760C3640.19 754.77 3646.11 749.28 3648.02 747.78C3649.93 746.28 3655.25 742.68 3659.84 739.78C3664.42 736.88 3673.87 730.74 3680.84 726.15C3687.8 721.56 3696.65 715.28 3700.5 712.2C3704.35 709.11 3709.89 704.32 3712.81 701.55C3715.73 698.77 3719.03 696.05 3720.14 695.5C3721.25 694.95 3723.77 691.58 3725.73 688C3727.69 684.42 3731.25 678.69 3733.65 675.25C3736.26 671.49 3739 665.81 3740.5 661C3742.2 655.56 3743.8 645.81 3745.5 630.5C3746.88 618.13 3748.68 604.06 3749.52 599.25C3750.35 594.44 3751.71 587.13 3752.55 583C3753.38 578.88 3754.77 573.02 3755.63 570C3756.49 566.98 3758.6 561.58 3760.32 558C3762.66 553.14 3766.11 548.82 3773.98 540.85C3779.76 535 3787.65 528.19 3791.5 525.72C3795.35 523.25 3802.55 518.9 3807.5 516.05C3812.45 513.21 3820.78 508.72 3826 506.08C3831.22 503.44 3838.2 500.69 3841.5 499.97C3844.8 499.25 3852.68 498.71 3859 498.77C3865.32 498.83 3872.75 499.4 3875.5 500.02C3878.25 500.65 3884.1 502.32 3888.5 503.72C3892.9 505.13 3900.44 508.25 3905.25 510.64C3910.06 513.04 3917.94 517.66 3922.75 520.91C3927.56 524.16 3935.55 528.85 3940.5 531.34C3945.45 533.83 3955.13 537.72 3962 539.99C3968.88 542.26 3975.63 544.97 3977 546.01C3979.06 547.58 3979.3 548.23 3978.38 549.71C3977.5 551.11 3975.93 551.5 3971.18 551.5C3967.84 551.5 3965.42 551.8 3965.8 552.16C3966.19 552.52 3968.75 554.05 3971.5 555.57C3974.25 557.08 3977.29 559.15 3978.25 560.16C3979.21 561.17 3979.77 562.67 3979.5 563.5C3979.23 564.33 3977.54 565.26 3975.75 565.57C3973.96 565.88 3970.14 566.78 3967.25 567.57C3962.47 568.87 3961.82 569.4 3960 573.5C3958.22 577.5 3958.02 579.98 3958.14 595.75C3958.22 605.51 3958.65 618.23 3959.09 624C3959.53 629.77 3960.41 638.77 3961.05 644C3961.69 649.23 3962.78 656.2 3963.48 659.5C3964.18 662.8 3965.3 667.52 3965.97 670C3966.65 672.48 3967.56 674.95 3968.01 675.5C3968.46 676.05 3969.12 678.3 3969.48 680.5C3969.96 683.38 3969.7 685.13 3968.57 686.75C3967.71 687.99 3965.09 689.85 3962.75 690.89C3960.41 691.94 3957.26 694.19 3955.75 695.89C3954.24 697.6 3952.97 699.79 3952.93 700.75C3952.89 701.71 3952.71 703.63 3952.52 705C3952.32 706.38 3951.57 708.67 3950.83 710.11C3950.1 711.54 3947.02 715.39 3944 718.66C3940.98 721.93 3937.65 726.38 3936.61 728.55C3935.57 730.72 3934.43 734.75 3934.08 737.5C3933.72 740.25 3932.47 744.08 3931.29 746C3930.11 747.92 3927.87 750.68 3926.32 752.12C3924.77 753.56 3921.47 755.93 3919 757.39C3916.11 759.09 3912.36 760.25 3908.5 760.63C3903.29 761.14 3900.86 760.68 3890 757.19C3883.13 754.98 3874.91 752.46 3871.75 751.59C3868.59 750.71 3864.65 750 3863 750C3861.35 750 3858.99 750.5 3857.75 751.12C3856.51 751.73 3853.81 753.87 3851.73 755.87C3849.66 757.87 3847.97 759.95 3847.98 760.5C3847.98 761.05 3849.59 762.4 3851.56 763.5C3853.52 764.6 3858.48 769.66 3862.57 774.75C3866.65 779.84 3870.01 784.79 3870.03 785.75C3870.04 786.71 3870.7 788.17 3871.49 789C3872.54 790.09 3873.25 795.44 3874.08 808.5C3874.71 818.4 3874.96 830.1 3874.63 834.5C3874.3 838.9 3873.46 843.13 3872.77 843.89C3871.79 844.96 3871.68 848.42 3872.28 858.89C3872.71 866.38 3872.71 872.87 3872.28 873.33C3871.85 873.79 3870.91 878.74 3870.18 884.33C3869.46 889.92 3868.49 903.05 3868.04 913.5C3867.58 923.95 3866.87 934.08 3866.46 936C3866.06 937.92 3865.41 939.73 3865.03 940C3864.65 940.27 3863.76 944.55 3863.06 949.5C3862.35 954.45 3861.75 963.23 3861.72 969C3861.69 974.77 3862 980.85 3862.42 982.5C3862.84 984.15 3864.04 987.41 3865.09 989.75C3866.81 993.58 3867.35 994 3870.5 994C3872.43 994 3875.01 993.6 3876.25 993.11C3877.49 992.62 3882.55 991.73 3887.5 991.12C3892.45 990.51 3910 989.55 3926.5 988.98C3943 988.41 3963.93 987.25 3973 986.41C3982.07 985.57 3994.23 984.22 4000 983.41C4005.77 982.61 4020.63 979.88 4033 977.35C4045.39 974.82 4060.44 972.4 4066.5 971.98C4072.55 971.55 4085.38 971.63 4095 972.15C4104.63 972.68 4119.02 974.22 4127 975.57C4134.98 976.93 4146.9 979.37 4153.5 980.99C4160.1 982.62 4170.23 985.43 4176 987.24C4184.84 990.01 4188.71 991.98 4200.5 999.7C4208.2 1004.74 4217.88 1010.43 4222 1012.34C4226.13 1014.25 4232.2 1016.58 4235.5 1017.52C4239.67 1018.71 4244 1019.12 4249.7 1018.87C4257.6 1018.51 4258.05 1018.36 4261.7 1014.81C4263.79 1012.78 4267.73 1007.38 4270.46 1002.81C4273.18 998.24 4279.77 985.5 4285.09 974.5C4290.41 963.5 4299.6 943.92 4305.5 931C4311.4 918.08 4318.93 901.65 4322.23 894.5C4325.53 887.35 4336.46 864.85 4346.53 844.5C4356.6 824.15 4367.69 802.53 4371.17 796.46C4374.65 790.38 4379.84 782.51 4382.69 778.96C4385.55 775.41 4389.93 771.04 4392.44 769.25C4394.95 767.46 4398.13 766 4399.5 766C4400.88 766 4402.9 766.9 4404 768C4405.1 769.1 4406 770.67 4406 771.5C4406 772.33 4403.93 777.84 4401.4 783.75C4398.87 789.66 4389.59 809.35 4380.78 827.5C4371.97 845.65 4359.24 872.2 4352.5 886.5C4345.76 900.8 4334.38 925.55 4327.21 941.5C4320.05 957.45 4310.77 978.49 4306.59 988.25C4302.42 998.01 4297.25 1010.61 4295.1 1016.25C4292.96 1021.89 4290.19 1030.33 4288.96 1035C4287.17 1041.78 4286.95 1043.96 4287.86 1045.75C4288.65 1047.31 4290.45 1048.31 4293.75 1049C4296.36 1049.55 4308.18 1050.44 4320 1050.98C4331.82 1051.52 4353.88 1052.42 4369 1052.97C4384.13 1053.52 4419.45 1054.65 4447.5 1055.48C4475.55 1056.31 4516.73 1057.44 4539 1058C4561.27 1058.56 4605.6 1059.67 4637.5 1060.47C4669.4 1061.28 4720.7 1062.45 4751.5 1063.09C4787.21 1063.83 4808.75 1064.65 4810.95 1065.37C4813.16 1066.1 4815.13 1067.76 4816.45 1070C4818.17 1072.93 4818.54 1075.5 4819 1098L4779 1098L4778.47 1150.25C4778.18 1178.99 4777.5 1256.95 4776.97 1323.5C4776.44 1390.05 4775.54 1491.53 4774.98 1549C4774.42 1606.47 4773.52 1691.97 4772.99 1739C4772.45 1786.03 4772.01 1828.44 4772 1842L4727 1842L4727.54 1820.25C4727.84 1808.29 4728.96 1744.95 4730.03 1679.5C4731.1 1614.05 4732.44 1534.17 4733.01 1502C4733.57 1469.83 4734.47 1423.47 4735.02 1399C4735.56 1374.53 4736.46 1336.72 4737.03 1315C4737.59 1293.28 4738.48 1262.9 4738.99 1247.5C4739.51 1232.1 4740.28 1210.61 4741.5 1179.99L4075 1180L4074.97 1209.5L4079.07 1213.5C4081.32 1215.7 4084.23 1219.3 4085.52 1221.5C4086.82 1223.7 4089.29 1229.33 4091.01 1234C4092.73 1238.67 4096.62 1250.6 4099.64 1260.5C4102.66 1270.4 4117.73 1324.63 4133.13 1381C4148.53 1437.38 4166.28 1503.08 4172.58 1527C4178.87 1550.92 4185.14 1576.24 4186.51 1583.25C4187.88 1590.26 4189 1599.26 4188.99 1603.25C4188.98 1610.02 4188.75 1610.8 4185.46 1615C4183.52 1617.47 4181.96 1620.17 4181.99 1621C4182.02 1621.83 4183.05 1623.55 4184.27 1624.83C4186.34 1627 4186.5 1628.09 4186.5 1652.88L4190 1656.54C4191.93 1658.56 4196.88 1662.49 4201 1665.29C4205.13 1668.08 4211.65 1673.21 4215.5 1676.69C4219.35 1680.16 4224.98 1684.73 4228 1686.84C4231.02 1688.94 4234.85 1691.36 4236.5 1692.21C4238.15 1693.05 4241.38 1695.49 4243.69 1697.62C4245.99 1699.76 4249.02 1702.51 4253 1706L4281.25 1704.88C4301.61 1704.08 4311.45 1704.07 4316.5 1704.85C4321.78 1705.67 4323.95 1706.49 4325.32 1708.22C4326.57 1709.78 4326.93 1711.29 4326.47 1713C4326.1 1714.38 4324.56 1717.3 4323.05 1719.5C4321.54 1721.7 4317.19 1726.32 4313.4 1729.76C4309.08 1733.68 4303.14 1737.71 4297.5 1740.54C4292.55 1743.03 4285.35 1745.71 4281.5 1746.51C4277.65 1747.31 4271.01 1747.97 4266.75 1747.98C4262.02 1747.99 4257.54 1748.61 4255.25 1749.56C4253.19 1750.42 4251.17 1751.66 4250.77 1752.31C4250.36 1752.97 4250.02 1755.41 4250.02 1757.75C4250.01 1760.09 4250.63 1763.24 4251.39 1764.75C4252.15 1766.26 4254.97 1769.55 4257.64 1772.06C4260.31 1774.57 4265.65 1778.38 4269.5 1780.53C4273.35 1782.68 4279.2 1785.41 4282.5 1786.6C4285.8 1787.79 4290.98 1789.09 4294 1789.5C4297.16 1789.92 4304.83 1789.67 4312 1788.93C4321.75 1787.92 4325.44 1787.89 4328.75 1788.82C4331.09 1789.47 4333.68 1790.67 4334.5 1791.5C4335.32 1792.33 4336.01 1794.24 4336.01 1795.75C4336.02 1797.26 4334.75 1800.53 4333.18 1803C4331.62 1805.47 4328.57 1809.09 4326.42 1811.04C4324.26 1812.99 4320.25 1815.91 4317.5 1817.52C4314.75 1819.14 4308 1822.32 4302.5 1824.59C4297 1826.86 4284.4 1830.79 4274.5 1833.32C4256.75 1837.85 4256.25 1837.92 4239 1838.09C4229.38 1838.19 4220.82 1837.91 4220 1837.46C4219.18 1837.02 4208.6 1836.31 4196.5 1835.89C4184.4 1835.47 4170.68 1834.42 4166 1833.56C4161.32 1832.7 4155.02 1831.14 4152 1830.09C4148.98 1829.05 4143.13 1827.71 4139 1827.13C4134.88 1826.54 4124.98 1825.61 4117 1825.06C4109.02 1824.5 4094.4 1823.76 4066.5 1822.77L4057.07 1818.64C4049.81 1815.45 4046.74 1813.47 4043.7 1810C4041.53 1807.53 4038.75 1803.92 4037.53 1802C4036.31 1800.08 4033.71 1794.67 4028.19 1781.5L4027.64 1758C4027.28 1743.01 4026.48 1731.06 4025.42 1725C4024.51 1719.78 4022.02 1710.21 4019.88 1703.75C4017.75 1697.29 4015.25 1687.61 4014.34 1682.25C4012.92 1673.92 4012.85 1671.11 4013.87 1663C4014.77 1655.8 4014.79 1652.17 4013.92 1648C4013.29 1644.97 4011.32 1639.58 4009.54 1636C4007.76 1632.42 4003.19 1624.33 3999.38 1618C3995.56 1611.67 3990.32 1601.66 3987.72 1595.75C3985.13 1589.84 3982.12 1582.19 3981.04 1578.75C3979.97 1575.31 3973.42 1550.22 3966.5 1523C3959.57 1495.78 3952.61 1467.65 3951.01 1460.5C3949.42 1453.35 3947.2 1442.1 3946.08 1435.5C3944.96 1428.9 3943.39 1417.88 3942.6 1411C3941.81 1404.13 3940.79 1392.98 3940.33 1386.24C3939.87 1379.5 3939.39 1373.99 3939.25 1373.99C3939.11 1374 3934.61 1376.2 3929.25 1378.88C3923.89 1381.57 3916.69 1384.94 3913.25 1386.38C3909.81 1387.82 3903.06 1390.14 3898.25 1391.54C3892.88 1393.1 3884.87 1394.44 3877.5 1395C3870.9 1395.51 3864.04 1396.39 3862.25 1396.96C3860.3 1397.59 3858.5 1399.08 3857.75 1400.71C3857.06 1402.2 3854.25 1405.14 3851.5 1407.24C3848.75 1409.34 3839.75 1414.92 3831.5 1419.64C3823.25 1424.36 3812.22 1431.18 3807 1434.79C3801.78 1438.4 3793.82 1444.99 3789.33 1449.43C3784.23 1454.47 3780.29 1459.38 3778.84 1462.5C3776.73 1467.06 3776.57 1468.52 3777 1479C3777.25 1485.33 3777.45 1495.67 3777.44 1502C3777.42 1511.35 3777.05 1514.25 3775.46 1517.5C3773.85 1520.78 3772.51 1521.9 3768 1523.7C3764.97 1524.9 3758.45 1526.34 3753.5 1526.89C3747.82 1527.52 3741.73 1527.56 3737 1526.98C3732.17 1526.39 3728.84 1525.43 3727.64 1524.28C3726.62 1523.3 3724.94 1520.81 3723.89 1518.75C3722.85 1516.69 3720.69 1509.94 3719.09 1503.75C3717.49 1497.56 3715.65 1488 3714.99 1482.5C3714.33 1477 3713.28 1471.24 3712.65 1469.71C3712.02 1468.18 3711.16 1466.94 3710.75 1466.96C3710.34 1466.98 3709.82 1467.56 3709.59 1468.25C3709.37 1468.94 3708.48 1474.9 3707.62 1481.5C3706.76 1488.1 3705.39 1502.5 3704.56 1513.5C3703.74 1524.5 3702.57 1543.17 3701.97 1555C3701.37 1566.83 3700.56 1585.95 3700.17 1597.5C3699.78 1609.05 3699.61 1619.85 3699.8 1621.5C3700.1 1624.24 3700.54 1624.56 3704.82 1625.2C3707.39 1625.58 3716.47 1626.79 3725 1627.87C3733.53 1628.96 3748.38 1630.78 3758 1631.91C3767.63 1633.03 3783.15 1634.86 3792.5 1635.96C3801.85 1637.05 3820.3 1639.07 3833.5 1640.44C3846.7 1641.81 3868.07 1643.84 3881 1644.95C3893.93 1646.06 3913.5 1647.39 3924.5 1647.92C3936.65 1648.49 3946.86 1649.49 3950.5 1650.46C3953.8 1651.34 3957.63 1652.87 3959 1653.86C3960.38 1654.85 3962.25 1657.87 3963.17 1660.58C3964.09 1663.29 3965.39 1669.55 3966.05 1674.5C3966.8 1680.04 3967.04 1688.3 3966.67 1696C3966.32 1703.25 3965.2 1712.07 3963.99 1717C3962.84 1721.67 3960.86 1727.3 3959.57 1729.5C3958.29 1731.7 3955.39 1735.19 3953.12 1737.25C3950.85 1739.31 3947.09 1741.52 3944.75 1742.16C3942.41 1742.8 3939.82 1743.94 3939 1744.7C3937.91 1745.7 3937.55 1747.9 3937.7 1752.79C3937.8 1756.48 3938.36 1762.42 3938.94 1766C3939.51 1769.58 3939.99 1775.54 3939.99 1779.25C3940 1782.96 3939.2 1788.59 3938.22 1791.75C3937.24 1794.91 3934.34 1800.88 3931.79 1805C3929.23 1809.13 3925.42 1814.31 3923.32 1816.53C3921.14 1818.83 3917.36 1821.37 3914.5 1822.46C3910.5 1823.98 3908.01 1824.23 3902 1823.75C3897.88 1823.41 3892.51 1822.32 3890.07 1821.32C3887.52 1820.27 3884 1817.59 3881.77 1815C3879.54 1812.41 3876.64 1807.2 3874.95 1802.75C3873.33 1798.49 3872 1793.42 3872 1791.5C3872 1789.58 3872.9 1786.2 3874 1784C3875.1 1781.8 3878.81 1777.24 3882.25 1773.87C3885.69 1770.51 3891.54 1766.01 3895.25 1763.87C3898.96 1761.74 3902 1759.33 3902 1758.5C3902 1757.55 3899.52 1756.12 3895.25 1754.61C3891.54 1753.3 3877.03 1748.61 3863 1744.19C3848.97 1739.78 3828.95 1733.6 3818.5 1730.48C3808.05 1727.35 3791.18 1722.39 3781 1719.46C3770.82 1716.53 3752.38 1711.41 3740 1708.09C3727.63 1704.76 3713 1701.12 3707.5 1700.01C3702 1698.89 3695.47 1697.99 3693 1698C3690.53 1698.02 3687.82 1698.46 3687 1698.98C3685.73 1699.79 3685.5 1704.06 3685.5 1727.22C3685.5 1747.14 3685.16 1755.11 3684.25 1756.75C3683.56 1757.99 3680.86 1760.01 3678.25 1761.25C3674.29 1763.12 3671.8 1763.5 3663.32 1763.5C3654.54 1763.5 3652.76 1763.21 3650.32 1761.4C3648.77 1760.24 3646.63 1757.76 3645.57 1755.9C3643.97 1753.07 3643.43 1748.87 3642.4 1731C3641.72 1719.17 3640.67 1708.26 3640.08 1706.75C3639.03 1704.08 3638.91 1704.04 3635.75 1705.41C3633.96 1706.18 3627.1 1709.83 3620.5 1713.51C3613.9 1717.19 3595.68 1727.65 3580 1736.75C3564.32 1745.86 3541.71 1759.09 3508 1779L3508.47 1783.25C3508.72 1785.59 3509.2 1790.42 3509.53 1794C3509.86 1797.58 3510.12 1804.33 3510.11 1809C3510.09 1815.96 3509.64 1818.41 3507.64 1822.5C3506.08 1825.67 3502.14 1830.37 3496.85 1835.34C3492.26 1839.66 3484.9 1845.42 3480.5 1848.15C3473.56 1852.46 3472 1853.05 3468.75 1852.56C3466.69 1852.25 3462.41 1850.7 3459.25 1849.1C3456.09 1847.51 3452.52 1845.14 3451.32 1843.85C3450.13 1842.56 3448.02 1839.25 3446.65 1836.5C3445.27 1833.75 3443.62 1828.35 3442.97 1824.5C3442.07 1819.14 3442.07 1816.45 3442.97 1813C3443.62 1810.53 3445.24 1807.04 3446.58 1805.25C3447.91 1803.46 3452.49 1799.47 3456.75 1796.37C3461.01 1793.28 3466 1789.34 3467.84 1787.62C3469.67 1785.91 3472.25 1782.7 3473.57 1780.5C3474.89 1778.3 3476.41 1773.8 3476.96 1770.5C3477.51 1767.2 3479.76 1760.79 3481.98 1756.25C3484.93 1750.2 3487.8 1746.2 3492.77 1741.25C3496.49 1737.54 3503.35 1731.52 3508.02 1727.88C3512.68 1724.25 3519.88 1719.12 3524 1716.48C3528.13 1713.85 3534.99 1709.07 3539.25 1705.85C3543.51 1702.63 3547.56 1698.87 3548.25 1697.49C3549.08 1695.81 3549.17 1694.63 3548.5 1693.94C3547.82 1693.24 3540.56 1693.58 3525.5 1695.03C3513.4 1696.19 3487.97 1698.7 3469 1700.6C3450.03 1702.5 3428.2 1704.7 3420.5 1705.49C3412.8 1706.29 3395.47 1708.08 3382 1709.48C3368.53 1710.88 3353.68 1712.69 3349 1713.5C3344.32 1714.3 3339.82 1715.64 3339 1716.45C3337.67 1717.77 3337.85 1718.7 3340.65 1724.72C3342.37 1728.45 3344.07 1733.75 3344.42 1736.5C3344.76 1739.25 3344.59 1743.75 3344.03 1746.5C3343.45 1749.36 3341.4 1753.81 3339.26 1756.91C3337.19 1759.88 3333.03 1764.04 3330 1766.15C3326.28 1768.75 3321.91 1770.64 3316.5 1772.01C3312.1 1773.12 3305.8 1774.02 3302.5 1774.02C3299.2 1774.02 3294.03 1773.29 3291 1772.39C3287.19 1771.27 3284.23 1769.5 3281.37 1766.64C3278.8 1764.07 3276.74 1760.79 3275.92 1758C3274.93 1754.59 3274.86 1752.05 3275.64 1747.5C3276.2 1744.2 3277.75 1739.29 3279.08 1736.6C3280.69 1733.33 3283.17 1730.51 3286.5 1728.13C3289.25 1726.17 3294.2 1723.76 3297.5 1722.77C3300.8 1721.78 3304.56 1720.42 3305.86 1719.74C3307.16 1719.06 3308.9 1717.15 3309.73 1715.5C3310.55 1713.85 3311.42 1709.35 3311.67 1705.5C3311.91 1701.65 3312.31 1697.04 3312.55 1695.25C3312.8 1693.46 3314.13 1690.65 3315.5 1689C3317.13 1687.04 3319.83 1685.48 3323.25 1684.5C3326.14 1683.67 3342.9 1680.34 3360.5 1677.08C3378.1 1673.83 3404.88 1668.9 3420 1666.13C3435.13 1663.36 3466.4 1657.66 3489.5 1653.47C3512.6 1649.28 3542.75 1643.84 3556.5 1641.39C3570.25 1638.94 3589.15 1635.59 3598.5 1633.95C3607.85 1632.31 3617.97 1630.47 3626.5 1628.76L3625.79 1607.63C3625.4 1596.01 3624.37 1577.72 3623.51 1567C3622.64 1556.28 3621.05 1538.28 3619.98 1527C3618.9 1515.72 3617.73 1501.33 3617.36 1495C3616.88 1486.55 3617.07 1482.06 3618.1 1478.08C3619.26 1473.61 3620.37 1471.92 3624.5 1468.39C3627.94 1465.45 3629.19 1463.78 3628.5 1463.04C3627.95 1462.45 3621.43 1460.9 3614 1459.6C3606.57 1458.3 3598.93 1456.59 3597 1455.8C3595.07 1455 3592.05 1452.58 3590.28 1450.42C3588.5 1448.27 3585.67 1442.9 3583.98 1438.5C3582.28 1434.1 3579.35 1428.14 3577.45 1425.25C3575.55 1422.36 3572.54 1418.93 3570.75 1417.62C3568.96 1416.32 3565.93 1414.78 3564 1414.2C3562.07 1413.62 3557.13 1412.88 3553 1412.54C3548.88 1412.2 3539.43 1412.37 3532 1412.92C3524.57 1413.47 3514.68 1414.6 3510 1415.42C3505.32 1416.25 3498.8 1417.8 3495.5 1418.88C3490.82 1420.4 3488.62 1420.63 3485.5 1419.92C3483.3 1419.41 3479.93 1417.79 3478 1416.3C3476.07 1414.82 3472.25 1412.62 3469.5 1411.42C3466.75 1410.22 3460 1407.87 3454.5 1406.19C3449 1404.51 3439.78 1402.16 3434 1400.97C3428.22 1399.78 3419.9 1397.67 3415.5 1396.29C3411.1 1394.9 3404.69 1392.47 3401.25 1390.89C3396.35 1388.62 3394.45 1387.08 3392.48 1383.75C3390.94 1381.14 3389.72 1377.18 3389.33 1373.5C3388.8 1368.57 3389.18 1365.9 3391.46 1358.5C3392.99 1353.55 3398.27 1339.83 3403.2 1328C3408.13 1316.17 3415.68 1297.05 3419.99 1285.5C3424.29 1273.95 3430.3 1256.63 3433.35 1247C3436.4 1237.38 3440.69 1223.2 3442.88 1215.5C3445.08 1207.8 3448.22 1196.1 3449.86 1189.5C3451.51 1182.9 3453.89 1171.65 3455.16 1164.5C3457.2 1152.99 3457.46 1148.41 3457.42 1124.5C3457.39 1107.52 3456.73 1090.26 3455.65 1078C3454.7 1067.28 3452.8 1048.83 3451.43 1037C3450.06 1025.17 3447.36 1005.83 3445.44 994C3443.51 982.17 3440.63 966.88 3439.04 960C3437.44 953.13 3434.33 938.27 3432.11 927C3429.9 915.73 3427.17 901.33 3426.05 895C3424.93 888.67 3421.58 868.88 3418.6 851C3415.62 833.13 3411.97 813.1 3410.49 806.5C3409 799.9 3406.93 792.14 3405.89 789.25C3404.85 786.36 3403.32 783.77 3402.5 783.5C3401.68 783.23 3399.88 783.67 3398.5 784.5C3397.13 785.33 3395.76 787.24 3395.46 788.75C3395.17 790.26 3394.61 792.57 3394.21 793.89C3393.82 795.2 3391.93 797.11 3390 798.14C3388.07 799.17 3384.59 800.01 3382.25 800C3379.91 800 3376.88 799.55 3375.5 799C3374.13 798.45 3372.69 796.99 3372.31 795.75C3371.93 794.51 3371.67 790.13 3371.72 786C3371.77 781.88 3372.57 771.08 3373.48 762C3374.4 752.92 3376.51 738.75 3378.16 730.5C3379.81 722.25 3383.08 709.65 3385.43 702.5C3387.77 695.35 3391.89 685.23 3394.58 680C3397.28 674.77 3402 667.13 3405.09 663C3408.18 658.88 3413.59 652.64 3417.1 649.15C3420.62 645.66 3427.1 640.4 3431.5 637.47C3435.9 634.53 3444.22 629.87 3450 627.1C3455.78 624.33 3463.43 621.39 3467 620.57C3470.57 619.75 3475.07 618.85 3477 618.58C3478.93 618.3 3481.74 617.16 3483.25 616.04C3484.93 614.79 3486.44 612.35 3487.13 609.75C3487.85 607.03 3488.04 600.83 3487.66 592.5C3487.34 585.35 3486.38 575.45 3485.52 570.5C3484.67 565.55 3483.03 558.35 3481.88 554.5C3480.73 550.65 3477.55 543 3474.81 537.5C3472.08 532 3465.97 521.65 3461.24 514.5C3456.51 507.35 3451.52 499.02 3450.14 496C3448.77 492.98 3447.31 488.93 3446.9 487C3446.41 484.72 3446.6 482.63 3447.43 481C3448.14 479.63 3450.69 477.49 3453.11 476.25C3455.52 475.01 3458.85 474.01 3460.5 474.02ZM3900 1088.23C3895.32 1090.14 3887.45 1092.89 3882.5 1094.34C3877.55 1095.79 3866.53 1098.56 3858 1100.48C3849.47 1102.41 3841.71 1103.99 3840.75 1103.99C3839.79 1104 3838.7 1104.56 3838.33 1105.25C3837.97 1105.94 3836.82 1110.78 3835.78 1116C3834.74 1121.22 3832.82 1128.88 3831.51 1133C3830.2 1137.13 3827.51 1145.22 3825.54 1151C3823.57 1156.78 3822.08 1161.57 3822.23 1161.66C3822.38 1161.75 3832.85 1163.01 3845.5 1164.45C3858.15 1165.9 3881.78 1169.11 3898 1171.59C3914.22 1174.06 3936.95 1177.67 3948.5 1179.6C3960.05 1181.53 3984.13 1186 4002 1189.54C4019.88 1193.09 4034.84 1195.99 4035.25 1195.99C4035.66 1196 4036 1172.6 4036 1144L4036 1092C3994.54 1091.99 3971.48 1091.54 3958 1091.01C3944.52 1090.48 3930.8 1089.57 3927.5 1089C3923.37 1088.29 3920.72 1087.18 3919 1085.46C3917.63 1084.08 3915.82 1083 3915 1083.06C3914.18 1083.12 3912.38 1083.53 3911 1083.97C3909.63 1084.41 3904.68 1086.33 3900 1088.23Z" />
	</g>
</svg>
