<svg xmlns="http://www.w3.org/2000/svg" viewBox="0 0 993 1324" width="993" height="1324">
	<defs>
		<clipPath clipPathUnits="userSpaceOnUse" id="cp1">
			<path d="M-129 -206L1062 -206L1062 1478L-129 1478Z" />
		</clipPath>
	</defs>
	<style>
		tspan { white-space:pre }
		.shp0 { fill: #010000 } 
		.shp1 { fill: #373b3c } 
		.shp2 { fill: #232323 } 
		.shp3 { fill: #fe6243 } 
		.shp4 { fill: #a63822 } 
		.shp5 { fill: #4a6b66 } 
		.shp6 { fill: #a7cec8 } 
		.shp7 { fill: #9cc5cf } 
		.shp8 { fill: #fbfdfd } 
	</style>
	<g id="Page 1" clip-path="url(#cp1)">
		<path id="Path 76" class="shp0" d="M993 360.93L993 441.14C987.27 471.76 976.64 499.61 957.74 525.47C941.05 548.31 945.6 577.93 951.45 603.1C974.76 703.42 956.87 801.66 941.43 900.3C932.36 958.29 921.55 1015.99 914.5 1074.3C909.93 1112.09 901.07 1148.56 878.99 1180.58C859.54 1213.58 829.84 1226.72 792.49 1226.04C769.23 1225.61 745.93 1226.03 722.65 1226.02C655.28 1225.96 638.17 1214.53 612.34 1152.53C600.72 1124.77 595.57 1095.79 595.71 1065.67C595.77 1051.79 593.04 1036.91 575.3 1037.78C557.38 1038.66 561.9 1055.17 561.46 1066.17C560.23 1096.87 563.38 1127.84 554.61 1158.01C542.59 1224.32 496.29 1270.44 426.67 1283.24C363.98 1294.79 304.58 1280.61 249.42 1251.8C223.96 1238.49 211.58 1212.01 208.73 1182.57C207.69 1141.47 200.88 1100.82 199.25 1059.72C198.49 1040.52 190.83 1027.27 167.26 1025.26C56.21 1015.73 13.42 972.08 4.25 859.59C-4.06 757.55 1.48 655.51 6.72 553.53C7.98 529.09 7.11 504.63 7.78 480.19C9.74 407.7 39.04 352.87 118.22 340.71C131.36 338.69 144.23 332.03 157.34 333.01C192.92 335.68 203.23 315.54 206.37 285.04C211.64 233.67 231.14 186.48 248.62 138.27C270.03 79.21 313.78 44.69 363.98 14.55C377.56 6.4 392.87 3.4 408.75 3.45C463.14 1.45 517.67 7.62 571.91 0L632.07 0C724.62 14.25 805.11 54.28 856.98 132.16C889.83 181.48 922.59 230.01 960.9 275.17C981.4 299.33 986.4 330.78 993 360.93Z" />
		<path id="Path 77" class="shp1" d="M993 1249.9C950.87 1287.57 896.71 1293.07 845 1302.44C721.8 1324.78 597.09 1325.17 472.31 1323.65C364.58 1322.33 258.78 1307.52 154.09 1283.12C153.02 1282.86 151.55 1283.28 150.83 1282.7C133.41 1268.42 99.28 1273.04 97.97 1241.47C96.58 1207.98 128.86 1210.84 148.85 1201.36C170.46 1191.1 193.95 1186.76 217.36 1182.54C223.11 1224.47 248.47 1244.78 287.85 1259.07C368.84 1288.44 441.83 1285.02 512.32 1230.88C539.53 1209.98 539.2 1182.68 545.59 1155.63C569.29 1141.28 594.64 1146.33 619.81 1149.34C637.68 1198.54 669.35 1224.88 724.94 1217.14C747.74 1213.95 771.36 1215.95 794.57 1216.61C828.09 1217.55 854.88 1206.61 871.63 1176.1C916.56 1183.91 964.64 1184.62 993 1229.85L993 1249.9Z" />
		<path id="Path 78" class="shp2" d="M404.24 6.41C405.37 4.36 405.55 2.22 404.81 0L571.91 0C546.99 14 520.05 4.83 494.11 6.26C464.25 7.9 434.21 6.49 404.24 6.41Z" />
		<path id="Path 79" class="shp3" d="M330.18 146.32C366.56 100.62 408.04 62.67 471.92 69.83C536.55 77.07 603.08 62.33 666.13 90.45C709.66 109.87 746.22 135.89 776.59 176.05C736.28 186.16 698.65 178.89 661.5 178.59C604.22 178.15 548.64 188.22 493.8 201.98C453.78 212.03 426.4 241.94 421.4 281.47C411.86 356.77 412.32 431.72 449.57 502.63C482.64 565.58 540.6 585.57 602.68 595.56C681.39 608.23 757.21 583.86 832.66 565.58C873.86 555.6 873.21 552.9 872.27 594.99C873.42 649.69 862.23 702.16 846.79 754.45C828.29 817.07 786.27 851.26 724.48 863.08C666.29 874.21 607.85 878.91 549.65 861.41C534.77 856.94 518.78 854.25 503.59 854.6C428.06 856.31 394.25 805.8 367.39 747.25C335.56 677.83 324.52 603.41 312.92 528.43C302.46 460.8 302.43 393.54 301.38 325.84C300.63 277.66 303.51 230.51 322.97 185.4C328.15 173.39 327.12 159.26 330.18 146.32Z" />
		<path id="Path 80" class="shp4" d="M330.18 146.32C331.99 165.25 330.1 183.55 325.7 202.33C301.56 305.46 307.71 408.7 321.68 512.86C328.91 566.74 337.95 619.77 350.2 672.63C364.04 732.29 393.88 782.74 432.38 829.15C438.43 836.44 446.29 836.02 453.48 836.72C523.59 843.67 591.49 869.3 663.23 862.1C696.24 858.79 728.75 854.26 760.44 842.35C798.19 828.16 820.37 801.54 832.49 765.09C849.29 714.58 863.68 663.46 866.45 609.78C866.71 604.76 870.25 599.91 872.27 594.99C884.44 689.21 879.89 782.4 866.8 876.75C856.18 953.27 822.67 1026.22 833.07 1106.32C837.1 1137.35 820.55 1159.53 784.22 1158.84C769.81 1158.56 755.38 1160.92 740.95 1161.01C689.03 1161.31 665.48 1131.8 672.32 1079.55C676.77 1045.6 683.61 1017.4 722.59 1005.66C741.66 999.91 757.42 983.16 779.11 968.35C754.98 959.59 737.32 969.09 719.64 969.1C663.96 969.12 608.62 968.59 553.62 957.01C506.57 947.1 491.47 960.95 482.48 1007.58C475.87 1041.9 476.27 1075.8 477.64 1110.18C479.98 1169.35 445.22 1206.16 384.9 1208.38C371.72 1208.87 358.16 1207.53 345.24 1204.81C291.82 1193.6 292.51 1190.25 284.43 1136.87C253.12 930.14 259.17 722.17 258.89 514.22C258.75 417.97 272.81 324.36 295.63 231.76C302.92 202.23 318.43 174.74 330.18 146.32Z" />
		<path id="Path 81" class="shp4" d="M190.09 494.74C190.56 608.08 190.6 721.43 191.8 834.75C192.11 864.65 195.62 894.54 198.38 924.36C199.93 940.95 194.94 947.75 176.81 948.69C119.54 951.65 92.36 925.79 82.68 867.86C62.81 748.99 78.39 630.85 84.55 512.43C84.76 508.37 87.79 504.47 89.51 500.49C122.96 497.26 155.99 486.72 190.09 494.74Z" />
		<path id="Path 82" class="shp5" d="M926.61 367.29C937.97 410.23 918.15 456.2 870.67 479.06C790.42 517.68 706.11 540.15 615.93 520.4C568.24 509.96 530.42 481.63 500.9 444.87C465.56 400.88 478.14 301.94 519.57 268.56C534.35 276.06 536.47 290.99 540.53 304.66C564.85 386.44 599.2 411.65 685.06 412.12C731.7 412.38 777.73 404.72 824.31 403.47C861.39 402.48 894.1 383.96 926.61 367.29Z" />
		<path id="Path 83" class="shp6" d="M926.61 367.29C904.44 403 866.37 407.62 830.8 411.47C776.88 417.32 722.37 419 668.08 420.02C596.71 421.37 554.11 387.9 535.12 319.4C530.38 302.33 524.77 285.49 519.57 268.56C560.17 258.2 601.31 250.77 642.93 246.02C660.8 244.34 657.63 258.27 659.62 268.38C659.22 277.32 655.25 285.43 653.12 293.99C648.8 311.33 655.97 323.98 672.73 326.12C728.55 333.28 784.39 342.43 841.05 337.16C847.87 336.52 853.29 332.3 857.91 327.33C869.11 320.89 859.82 293.74 884.42 300.85C909.19 316.19 921.41 339.51 926.61 367.29Z" />
		<path id="Path 84" class="shp3" d="M190.09 494.74C160.82 507.4 126.88 494.76 98.06 511.99C93.12 514.95 91.65 505.11 89.51 500.49C90.52 491.76 91.14 482.95 92.59 474.3C102 418.44 129.79 400.67 185.42 412.81C199.15 415.8 196.54 424.46 196 432.42C194.58 453.23 192.13 473.98 190.09 494.74Z" />
		<path id="Path 85" class="shp7" d="M652.08 274.02C651.45 263.9 654.89 252.44 642.93 246.02C731.28 229.69 813.11 242.1 884.43 300.85C863.87 303.71 880.03 327.77 865.3 334.01C852.4 304.3 829.66 290.81 798.07 282.22C749.27 268.96 701.2 268.51 652.08 274.02Z" />
		<path id="Path 86" class="shp8" d="M652.08 274.02C694.71 252.98 739.14 260.05 781.89 270.25C800.15 274.61 820.71 273.44 837.6 286.23C854.09 298.72 869.84 310.02 865.31 334.01C858 340.03 853.05 348.57 840.85 347.77C787.67 344.3 734.12 344.38 681.31 338.16C638.89 333.17 632.35 314.54 652.08 274.02Z" />
	</g>
</svg>