<svg xmlns="http://www.w3.org/2000/svg" viewBox="0 0 545 655" width="545" height="655">
	<style>
		tspan { white-space:pre }
		.shp0 { fill: #7159c1 } 
	</style>
	<path id="Path 0" class="shp0" d="M450.05 1.45C448.16 2.16 445.41 4.26 443.93 6.12C442.46 7.98 432.57 21.42 421.96 36C411.34 50.58 402.01 64.08 401.22 66C400.32 68.19 399.99 71.18 400.33 74C400.66 76.77 402.05 80.14 403.94 82.75C405.62 85.09 406.99 87.11 406.98 87.25C406.98 87.39 402.36 86.77 396.73 85.88C391.11 84.98 379.07 83.48 370 82.53C357.28 81.21 352.53 81.06 349.25 81.91C346.73 82.55 343.41 84.53 341.11 86.75C338.97 88.81 311.2 126.05 279.4 169.5C247.61 212.95 221.12 248.83 220.55 249.24C219.97 249.65 218.82 249.72 218 249.41C217.18 249.1 191.07 233.29 160 214.27C112.73 185.34 102.77 179.61 99 179.22C96.09 178.91 93.44 179.29 91.5 180.28C89.85 181.12 87.38 183.02 86 184.5C84.17 186.47 83.4 188.57 83.12 192.34C82.87 195.76 83.3 198.59 84.37 200.75C85.27 202.54 88.03 205.69 90.51 207.75C92.99 209.81 95.2 211.95 95.42 212.5C95.64 213.05 95.08 218.97 94.16 225.65C93.25 232.33 92.16 238.07 91.75 238.4C91.34 238.73 89.76 238.4 88.25 237.66C86.74 236.92 80.66 233.77 74.75 230.66C65.67 225.88 63.19 225 58.75 224.99C55.86 224.98 51.25 225.74 48.5 226.66C45.14 227.8 41.86 230.01 38.49 233.43C35.73 236.22 32.49 240.53 31.28 243C30.07 245.47 28.79 249.3 28.43 251.5C28.01 254.05 28.36 257.59 29.39 261.25C30.61 265.63 32.14 268.14 35.75 271.75C38.36 274.36 43.42 278.27 47 280.44C50.58 282.61 70.6 294.95 91.5 307.87C112.4 320.79 132.2 332.69 135.5 334.31C138.8 335.93 144.88 338.12 149 339.17C154.17 340.49 159.91 341.09 167.5 341.08C175.05 341.08 180.85 340.47 186 339.16C190.13 338.1 196.65 335.66 200.5 333.73C204.35 331.8 210.31 328.14 213.75 325.61C217.19 323.07 221.91 320 224.25 318.78C227 317.34 230.8 316.42 235 316.19C240.95 315.86 242.19 316.18 249.75 319.92C255.71 322.87 259.25 324 262.5 324C264.98 324 268.69 323.14 270.75 322.1C272.81 321.05 279.9 316.99 286.5 313.08C296.37 307.23 299.25 305.97 302.75 305.98C305.09 305.99 308.24 306.63 309.75 307.39C311.26 308.15 326 316.99 342.5 327.04C359 337.08 373.96 345.9 375.75 346.65C377.54 347.39 379.74 347.66 380.65 347.25C381.55 346.84 387.56 339.3 393.99 330.5C400.43 321.7 435.34 274.23 471.57 225C507.8 175.78 538.7 133.03 540.24 130C541.79 126.97 543.04 123.49 543.02 122.25C543.01 121.01 542.33 118.42 541.5 116.5C540.67 114.58 538.54 112.13 536.75 111.06C534.43 109.68 527.79 108.37 513.5 106.45C502.5 104.98 492.92 103.27 492.21 102.64C491.49 102.01 490.93 100.71 490.96 99.75C490.98 98.79 500.28 85.51 511.62 70.25C522.96 54.99 535.11 38.67 538.63 34C543.44 27.6 545.01 24.7 545.01 22.25C545 19.98 544.1 18.1 542 16C540.35 14.35 537.31 12.54 535.25 11.98C533.19 11.42 515.3 8.5 495.5 5.48C475.7 2.46 458.15 0.03 456.5 0.08C454.85 0.12 451.95 0.74 450.05 1.45ZM83.09 324.29C82.46 324.99 81.88 329.16 81.79 333.54L81.62 341.5C100.23 371.57 103.41 377.63 103.73 380.5C104.04 383.3 102.04 392.99 97.09 412.75C92.28 431.91 90.28 441.56 90.87 442.75C91.34 443.71 94.6 446.81 98.12 449.64C101.63 452.47 110.13 458.27 117 462.54C123.88 466.81 134 472.49 139.5 475.17C145 477.85 150.29 480.03 151.25 480.02C152.21 480.01 163.01 470.95 175.25 459.88C187.49 448.82 198.63 439.35 200 438.84C201.62 438.24 208.59 438.46 219.75 439.46C229.24 440.31 238.91 441.01 241.25 441.03C244.16 441.05 247.47 440.02 251.74 437.78C257.08 434.97 257.98 434.1 257.99 431.75C258 429.45 257.05 428.45 252.25 425.65C249.09 423.81 213.88 402.29 174 377.82C134.13 353.35 97.79 331.01 93.25 328.17C88.71 325.33 84.83 323 84.61 323C84.4 323 83.71 323.58 83.09 324.29ZM74 459.26C69.88 461.06 64.06 464.32 61.07 466.51C58.08 468.71 53.95 472.75 51.88 475.5C49.82 478.25 47 482.98 45.61 486C44.23 489.02 33.4 527.05 21.54 570.5C9.68 613.95 -0.02 650.06 -0.01 650.75C-0.01 651.44 0.67 652.67 1.5 653.5C2.33 654.33 4.24 655.02 5.75 655.04C8.02 655.08 19.04 645.39 68.5 599.91C101.5 569.57 130.24 542.44 132.36 539.62C134.48 536.8 137.13 532.7 138.23 530.5C139.34 528.3 141.1 523.13 142.14 519C143.17 514.88 144.03 508.8 144.04 505.5C144.06 500.73 143.64 499.09 142 497.5C140.86 496.4 139.95 494.94 139.97 494.25C139.99 493.56 138.76 491.59 137.25 489.86C135.74 488.13 131.35 485.15 127.5 483.23C123.65 481.31 115.1 476.06 108.5 471.58C101.9 467.09 94.47 462.01 92 460.28C89.53 458.56 86.15 456.89 84.5 456.57C82.37 456.17 79.32 456.95 74 459.26Z" />
</svg>